<svg xmlns="http://www.w3.org/2000/svg" viewBox="0 0 3425.18 440.57"><defs><style>.cls-1{fill:#fd7923;}.cls-2{fill:#fdb32b;}</style></defs><g id="Layer_2" data-name="Layer 2"><g id="Layer_1-2" data-name="Layer 1"><path class="cls-1" d="M3420.3,440.5c-1130.22,0-2285.06,0-3415.28.07-4.34,0-5-.66-5-3.21Q.18,319.43.1,201.51c2.28-1.21,5-.84,7.63-.85,35.26,0,70.52.25,105.77-.09q47.63-.47,94.84-4.85A1270.05,1270.05,0,0,0,353.75,173.3C395,164.56,435.24,154.16,475,143c36.11-10.11,71.74-20.86,107.46-31.5,47.22-14.07,94.46-28.13,143-40.39,63.27-16,128-28.87,195.73-35.11,18.64-1.72,37.39-2.85,56.24-3.56,23.17-.87,46.35-.81,69.46-.29,29.42.66,58.63,3.1,87.64,6.39,49,5.57,96.56,14.39,143.44,24.78,44.34,9.84,87.63,21.3,130.73,33.06,39.46,10.75,78.68,21.83,118.2,32.5,18.54,5,37.16,9.91,55.92,14.6,2.17.54,4.52.61,6.69,1.12,3.83,1.94,8.6,2.62,13,3.73,26.44,6.64,53.26,12.63,80.3,18.2,49,10.08,98.66,18.42,149.43,24.12,28,3.14,56.2,5.7,84.55,7.29,18.93,1.05,37.89,1.82,56.92,2.09,91.52,1.3,183,0,274.57.68,18.8.13,37.64.85,56.45,1.62,30.56,1.25,61,3.09,91.29,5.77a1490.41,1490.41,0,0,1,157.26,22.18,1190.83,1190.83,0,0,1,141.83,37.13c37,12.16,72,26.31,106.82,40.75,31,12.9,63.37,24.48,96.36,35.35,39.91,13.16,81.07,24.53,123.24,34.46a1599.75,1599.75,0,0,0,185,31.91q48.15,5.49,96.84,8.37c16.12.94,32.3,1.51,48.46,2.19,13.21.55,51.12-.1,64.26,1.13,1.73.16,3.76-.09,4.65,1.28C3420.52,428.75,3421.36,434.64,3420.3,440.5Z"/><path class="cls-2" d="M1791.16,94.14c56.22-16.67,112-34,169.29-49.14,53-14,106.94-26.18,163.09-34.28a1022.33,1022.33,0,0,1,197.13-9.49c61.09,3,120.42,11.4,178.64,23.22C2559.51,36.66,2617.7,52,2675.56,68c59.2,16.29,118.07,33.06,178.25,47.91,66.89,16.51,135,30.51,205.46,39.85q57.32,7.6,115.66,11c56.31,3.28,112.78,2.42,169.21,2.75,16.72.09,58.07.13,74.79-.05,4.78-.06,6.26.51,6.25,3.78q-.27,110-.15,220c0,9.75-.11,19.5-.17,29.24-32-.65-88.67-1.59-120.62-3.5a1716.63,1716.63,0,0,1-178.66-20.07,1557.67,1557.67,0,0,1-152.45-33.3,1498.64,1498.64,0,0,1-188.6-65.33A1162.32,1162.32,0,0,0,2566.73,233c-44.49-9.12-89.85-16-136-21-32.9-3.53-66-6-99.22-7.82-18.43-1-36.94-1.67-55.43-2-93.17-1.55-186.37-.19-279.55-.81-29.74-.2-59.41-1.49-89-3.46-71.06-4.73-136-12-204-25.54-34.5-6.89-81-16.87-114.56-25.3-.51-.13,29.41-6.14,59.78-14.12C1692.29,121.51,1753.29,105.36,1791.16,94.14Z"/></g></g></svg>
